<?xml version="1.0" encoding="UTF-8" standalone="no"?>
<!-- Created with Inkscape (http://www.inkscape.org/) -->

<svg
   width="24"
   height="24"
   viewBox="0 0 24 24"
   version="1.1"
   id="svg1434"
   inkscape:version="1.2.2 (b0a8486541, 2022-12-01)"
   sodipodi:docname="logo_simple.svg"
   xmlns:inkscape="http://www.inkscape.org/namespaces/inkscape"
   xmlns:sodipodi="http://sodipodi.sourceforge.net/DTD/sodipodi-0.dtd"
   xmlns="http://www.w3.org/2000/svg"
   xmlns:svg="http://www.w3.org/2000/svg">
  <sodipodi:namedview
     id="namedview1436"
     pagecolor="#505050"
     bordercolor="#eeeeee"
     borderopacity="1"
     inkscape:showpageshadow="0"
     inkscape:pageopacity="0"
     inkscape:pagecheckerboard="0"
     inkscape:deskcolor="#505050"
     inkscape:document-units="px"
     showgrid="true"
     inkscape:zoom="14.506582"
     inkscape:cx="8.0308373"
     inkscape:cy="14.820859"
     inkscape:window-width="1600"
     inkscape:window-height="831"
     inkscape:window-x="0"
     inkscape:window-y="0"
     inkscape:window-maximized="1"
     inkscape:current-layer="g5442"
     showguides="false">
    <sodipodi:guide
       position="-91.88145,-29.378747"
       orientation="1,0"
       id="guide15433"
       inkscape:locked="false" />
  </sodipodi:namedview>
  <defs
     id="defs1431">
    <inkscape:path-effect
       effect="fillet_chamfer"
       id="path-effect338"
       is_visible="true"
       lpeversion="1"
       nodesatellites_param="F,0,0,1,0,1.5875,0,1 @ F,0,0,1,0,1.5875,0,1 @ F,0,0,1,0,1.5875,0,1 @ F,0,0,1,0,1.5875,0,1 | F,0,0,1,0,1.5875,0,1 @ F,0,0,1,0,1.5875,0,1 @ F,0,0,1,0,1.5875,0,1 @ F,0,0,1,0,1.5875,0,1 @ F,0,0,1,0,1.5875,0,1 @ F,0,0,1,0,1.5875,0,1 | F,0,0,1,0,1.5875,0,1 @ F,0,0,1,0,1.5875,0,1 @ F,0,0,1,0,1.5875,0,1 @ F,0,0,1,0,1.5875,0,1 @ F,0,0,1,0,1.5875,0,1 @ F,0,0,1,0,1.5875,0,1 | F,0,0,1,0,1.5875,0,1 @ F,0,0,1,0,1.5875,0,1 @ F,0,0,1,0,1.5875,0,1 @ F,0,0,1,0,1.5875,0,1 @ F,0,0,1,0,1.5875,0,1 @ F,0,0,1,0,1.5875,0,1"
       unit="px"
       method="auto"
       mode="F"
       radius="6"
       chamfer_steps="1"
       flexible="false"
       use_knot_distance="true"
       apply_no_radius="true"
       apply_with_radius="true"
       only_selected="false"
       hide_knots="false" />
  </defs>
  <g
     inkscape:label="Calque 1"
     inkscape:groupmode="layer"
     id="layer1">
    <g
       id="g28775"
       transform="matrix(0.58435601,0,0,0.58435601,24.074041,15.331021)">
      <g
         id="g5442"
         transform="matrix(0.31502278,0,0,0.31502278,-35.53764,-24.736681)">
        <path
           id="path344"
           style="fill:#000000;fill-opacity:1;stroke:none;stroke-width:1.59946;-inkscape-stroke:none;paint-order:fill markers stroke;stop-color:#000000"
           inkscape:transform-center-y="-6.3485854"
           d="M 41.395931,38.699445 3.762343,103.88657 H 6.9421193 C 10.916737,99.027076 23.5275,84.807901 35.305044,84.807901 c 12.037145,0 25.801921,19.078669 33.266921,19.078669 h 10.457554 z"
           sodipodi:nodetypes="cccsccc" />
        <path
           id="path15431"
           style="font-variation-settings:normal;opacity:1;vector-effect:none;fill:#000000;fill-opacity:1;stroke-width:0.382475;stroke-linecap:butt;stroke-linejoin:miter;stroke-miterlimit:4;stroke-dasharray:none;stroke-dashoffset:0;stroke-opacity:1;-inkscape-stroke:none;paint-order:fill markers stroke;stop-color:#000000"
           d="m 85.140993,17.220079 c -0.991387,0.41034 -1.784288,1.203215 -2.194664,2.194583 -0.333209,0.804952 -0.333206,2.289838 -5.7e-5,3.094729 0.410341,0.991386 1.203216,1.784288 2.194584,2.194663 0.804952,0.33321 2.289849,0.332899 3.094603,-5.8e-4 0.99069,-0.410529 1.782969,-1.203107 2.193126,-2.193946 0.33321,-0.804953 0.333206,-2.289838 5.7e-5,-3.094729 -0.410122,-0.990858 -1.202375,-1.783462 -2.193046,-2.194026 -0.804816,-0.33354 -2.289712,-0.333843 -3.094603,-6.94e-4 z M 47.22697,20.243636 c -0.186593,10.246236 3.624415,20.171612 10.620279,27.660156 0.598488,0.640636 1.610331,1.640021 2.258324,2.230527 7.57441,6.902442 17.54398,10.589149 27.786884,10.275541 0.876289,-0.02683 1.53521,-0.789433 1.47334,-1.663999 l -0.204343,-2.88853 c -0.06187,-0.874566 -0.821187,-1.529304 -1.697618,-1.508852 -8.502216,0.198401 -16.759598,-2.85619 -23.087011,-8.53882 -0.652244,-0.585778 -1.664278,-1.58535 -2.258082,-2.230288 -5.760549,-6.256602 -8.916856,-14.476126 -8.82376,-22.980226 0.0096,-0.876622 -0.654485,-1.627993 -1.529735,-1.679295 l -2.892697,-0.169552 c -0.87525,-0.0513 -1.629619,0.616791 -1.645581,1.493338 z m 12.1387,0.709371 c -0.0022,6.756737 2.502989,13.281011 7.026525,18.300109 0.586892,0.651187 1.599261,1.651089 2.257658,2.229873 5.0747,4.461067 11.629145,6.885603 18.385283,6.799784 0.876563,-0.01113 1.53576,-0.775237 1.473908,-1.649805 L 88.304638,43.742783 C 88.242786,42.868215 87.482947,42.215744 86.606404,42.212454 81.591772,42.193633 76.743235,40.40225 72.922682,37.154435 72.254833,36.586704 71.241807,35.586152 70.665839,34.925397 67.371044,31.14558 65.520177,26.320666 65.439307,21.30687 65.42517,20.430432 64.763339,19.678682 63.888076,19.627605 l -2.890988,-0.168707 c -0.875263,-0.05108 -1.631136,0.61748 -1.631418,1.494109 z m 12.158118,0.71082 c 0.15104,3.265167 1.354038,6.397996 3.427061,8.92522 0.55579,0.677564 1.57042,1.679698 2.254831,2.227033 2.553026,2.041701 5.701619,3.206196 8.968743,3.316865 0.875852,0.02967 1.536367,-0.738299 1.474515,-1.612867 L 87.444532,31.629892 C 87.38268,30.755324 86.618228,30.110977 85.74725,30.020687 84.224866,29.862869 82.766668,29.323668 81.507877,28.453048 80.7877,27.954951 79.7673,26.947143 79.260284,26.233217 78.374396,24.985806 77.817523,23.53537 77.640979,22.015607 77.539938,21.14581 76.886193,20.38936 76.010929,20.338297 l -2.892647,-0.168758 c -0.875264,-0.05106 -1.634989,0.618872 -1.594494,1.494288 z"
           inkscape:path-effect="#path-effect338"
           inkscape:original-d="m 86.688289,16.913949 a 4.0478507,4.0478507 0 0 0 -4.048147,4.048146 4.0478507,4.0478507 0 0 0 4.048147,4.048146 4.0478507,4.0478507 0 0 0 4.046485,-4.048146 4.0478507,4.0478507 0 0 0 -4.046485,-4.048146 z M 47.287771,18.657408 C 46.625116,29.9899 50.877466,41.064657 58.954004,49.04175 67.030541,57.018843 78.154411,61.1324 89.477822,60.329403 L 89.049429,54.273789 C 79.4649,54.953473 70.057591,51.473381 63.221329,44.721293 56.385064,37.969203 52.789134,28.604957 53.350028,19.01274 Z m 12.124513,0.709007 c -0.458728,7.84504 2.485297,15.512191 8.076368,21.034419 5.591071,5.52223 13.29363,8.371563 21.132386,7.815679 L 88.192644,42.159238 C 82.09277,42.591808 76.103452,40.379262 71.752655,36.082037 67.401859,31.784811 65.115912,25.824852 65.47288,19.720088 Z m 12.121193,0.710666 c -0.254805,4.357589 1.380897,8.617133 4.486502,11.684498 3.105603,3.067365 7.386854,4.650813 11.740953,4.342044 l -0.428394,-6.057276 c -2.615216,0.185459 -5.179906,-0.762864 -7.045236,-2.605226 -1.865329,-1.842362 -2.844613,-4.393053 -2.691568,-7.010366 z" />
      </g>
    </g>
  </g>
</svg>
