<?xml version="1.0" encoding="UTF-8" standalone="no"?>
<!-- Created with Inkscape (http://www.inkscape.org/) -->

<svg
   width="24"
   height="24"
   viewBox="0 0 24 24"
   version="1.1"
   id="svg5"
   inkscape:version="1.2.2 (b0a8486541, 2022-12-01)"
   sodipodi:docname="stop_trash.svg"
   xmlns:inkscape="http://www.inkscape.org/namespaces/inkscape"
   xmlns:sodipodi="http://sodipodi.sourceforge.net/DTD/sodipodi-0.dtd"
   xmlns="http://www.w3.org/2000/svg"
   xmlns:svg="http://www.w3.org/2000/svg">
  <sodipodi:namedview
     id="namedview7"
     pagecolor="#505050"
     bordercolor="#eeeeee"
     borderopacity="1"
     inkscape:showpageshadow="0"
     inkscape:pageopacity="0"
     inkscape:pagecheckerboard="0"
     inkscape:deskcolor="#505050"
     inkscape:document-units="px"
     showgrid="true"
     inkscape:zoom="25.034622"
     inkscape:cx="13.900749"
     inkscape:cy="14.100472"
     inkscape:window-width="1920"
     inkscape:window-height="1011"
     inkscape:window-x="0"
     inkscape:window-y="0"
     inkscape:window-maximized="1"
     inkscape:current-layer="layer1">
    <inkscape:grid
       type="xygrid"
       id="grid202"
       empspacing="4"
       color="#7070ff"
       opacity="0.1254902"
       empcolor="#9f9fff"
       empopacity="0.25098039" />
  </sodipodi:namedview>
  <defs
     id="defs2" />
  <g
     inkscape:label="Calque 1"
     inkscape:groupmode="layer"
     id="layer1">
    <path
       id="rect2507"
       style="fill:#000000;fill-opacity:1;stroke:none;stroke-width:2;stroke-linecap:square;paint-order:fill markers stroke;stop-color:#000000;stroke-opacity:1;stroke-dasharray:none"
       d="M 5 3 C 3.8920011 3 3 3.8920011 3 5 L 3 19 C 3 20.107999 3.8920011 21 5 21 L 19 21 C 20.107999 21 21 20.107999 21 19 L 21 5 C 21 3.8920011 20.107999 3 19 3 L 5 3 z M 10 6 L 14 6 C 14.553997 6 15 6.4460018 15 7 L 16 7 C 16.553997 7 17 7.4460018 17 8 L 7 8 C 7 7.4460018 7.4460018 7 8 7 L 9 7 C 9 6.4460018 9.4460018 6 10 6 z M 8 9 L 16 9 L 16 17 C 16 17.553997 15.553997 18 15 18 L 9 18 C 8.4460018 18 8 17.553997 8 17 L 8 9 z " />
  </g>
</svg>
